<svg width="60" height="58" viewBox="0 0 60 58" fill="none" xmlns="http://www.w3.org/2000/svg">
<rect x="1" y="1" width="58" height="55.6562" rx="4" stroke="#F57DE3" stroke-width="2"/>
<path d="M49.1822 17.7149H43.6908C43.0211 14.6344 40.3423 12.3574 37.1278 12.3574C33.9133 12.3574 31.2346 14.6344 30.5649 17.7149H11.6797V20.3937H30.5649C31.2346 23.4742 33.9133 25.7512 37.1278 25.7512C40.3423 25.7512 43.0211 23.4742 43.6908 20.3937H49.1822V17.7149ZM37.1278 23.0724C34.8509 23.0724 33.1097 21.3312 33.1097 19.0543C33.1097 16.7774 34.8509 15.0362 37.1278 15.0362C39.4048 15.0362 41.1459 16.7774 41.1459 19.0543C41.1459 21.3312 39.4048 23.0724 37.1278 23.0724Z" fill="#F57DE3"/>
<path d="M11.6797 39.1449H17.1711C17.8408 42.2255 20.5196 44.5024 23.7341 44.5024C26.9486 44.5024 29.6273 42.2255 30.297 39.1449H49.1822V36.4662H30.297C29.6273 33.3856 26.9486 31.1087 23.7341 31.1087C20.5196 31.1087 17.8408 33.3856 17.1711 36.4662H11.6797V39.1449ZM23.7341 33.7874C26.011 33.7874 27.7522 35.5286 27.7522 37.8055C27.7522 40.0825 26.011 41.8237 23.7341 41.8237C21.4571 41.8237 19.7159 40.0825 19.7159 37.8055C19.7159 35.5286 21.4571 33.7874 23.7341 33.7874Z" fill="#F57DE3"/>
</svg>
