<svg width="66" height="66" viewBox="0 0 66 66" fill="none" xmlns="http://www.w3.org/2000/svg">
<circle cx="33.2302" cy="33.2302" r="30.2308" transform="rotate(-180 33.2302 33.2302)" stroke="#6DE5B5" stroke-width="5"/>
<path d="M49.3496 21.1612L40.4479 21.2341C39.6195 21.2409 38.9534 21.9179 38.9602 22.7463L38.9705 23.9977C38.9772 24.8261 39.6543 25.4922 40.4827 25.4854L42.731 25.467C43.1713 25.4634 43.4009 25.9895 43.099 26.3099L33.703 36.2801C33.5077 36.4873 33.1789 36.4898 32.9805 36.2856L26.9714 30.1005C26.9712 30.1003 26.9711 30.1001 26.9709 30.1C26.7792 29.9016 26.5506 29.7435 26.2977 29.636C26.0445 29.5283 25.7726 29.4738 25.498 29.476C25.2233 29.4783 24.9524 29.5373 24.701 29.649C24.4499 29.7607 24.224 29.9224 24.0356 30.1239C24.0354 30.1241 24.0352 30.1243 24.035 30.1245L13.4361 41.3865C12.8858 41.9713 12.8936 42.8857 13.4538 43.461L14.2723 44.3016C14.8679 44.9132 15.8531 44.9051 16.4386 44.2838L25.1813 35.0068C25.3767 34.7995 25.7054 34.797 25.9038 35.0013L31.913 41.1864C31.9131 41.1866 31.9133 41.1868 31.9134 41.1869C32.1052 41.3853 32.3338 41.5434 32.5867 41.6509C32.8398 41.7585 33.1117 41.8131 33.3864 41.8109C33.661 41.8086 33.932 41.7496 34.1833 41.6378C34.4343 41.5262 34.6602 41.3645 34.8486 41.1631C34.8489 41.1629 34.8491 41.1626 34.8493 41.1624L45.9406 29.3791C46.2496 29.0508 46.801 29.2669 46.8047 29.7177L46.8239 32.0624C46.8307 32.8908 47.5077 33.5569 48.3361 33.5501L49.4509 33.541C50.2793 33.5342 50.9454 32.8571 50.9386 32.0287L50.8618 22.6489C50.8551 21.8205 50.178 21.1544 49.3496 21.1612Z" fill="#59FF00" stroke="#6DE5B5"/>
</svg>
